<?xml version="1.0" encoding="UTF-8"?>
<svg xmlns="http://www.w3.org/2000/svg" xmlns:xlink="http://www.w3.org/1999/xlink" viewBox="0 0 56.16 57.07">
  <defs>
    <style>
      .cls-1 {
        fill: #80b8e5;
      }

      .cls-2 {
        stroke: #4690ce;
        stroke-miterlimit: 10;
      }

      .cls-2, .cls-3 {
        fill: none;
      }

      .cls-4 {
        clip-path: url(#clippath-4);
      }

      .cls-5 {
        fill: #4690ce;
      }

      .cls-6 {
        clip-path: url(#clippath-1);
      }

      .cls-7 {
        isolation: isolate;
      }

      .cls-8 {
        fill: #4e4d4d;
      }

      .cls-9 {
        clip-path: url(#clippath-3);
      }

      .cls-10 {
        fill: #4c8631;
      }

      .cls-11 {
        clip-path: url(#clippath-2);
      }

      .cls-12 {
        fill: #27a1db;
      }

      .cls-13 {
        opacity: .5;
      }

      .cls-14 {
        mix-blend-mode: multiply;
        opacity: .08;
      }
    </style>
    <clipPath id="clippath-1">
      <path class="cls-3" d="M-69.7-384.81V-73.28C-30.99-59.14,19.48-44.02,79.5-34.2h263.27c24.16-3.95,46.81-8.77,67.79-14.05v-336.55H-69.7Z"/>
    </clipPath>
    <clipPath id="clippath-2">
      <path class="cls-3" d="M-94.6-388.48V-82.84C-30.09-56.86,80.81-21.7,221.94-23.58c130.25-1.73,232.99-34.29,295.46-59.52v-305.38H-94.6Z"/>
    </clipPath>
    <clipPath id="clippath-3">
      <rect class="cls-3" x="-215.56" y="-15.3" width="312.73" height="374.54"/>
    </clipPath>
    <clipPath id="clippath-4">
      <rect class="cls-3" width="51.12" height="56.9"/>
    </clipPath>
  </defs>
  <g class="cls-7">
    <g id="Capa_1" data-name="Capa 1">
      <g>
        <g class="cls-6">
          <rect class="cls-1" x="-4.78" y="-171.69" width="132.76" height="201.65" transform="translate(43.68 21.31) rotate(-30)"/>
          <rect class="cls-5" x="-83.2" y="-171.69" width="132.76" height="201.65" transform="translate(33.18 -17.9) rotate(-30)"/>
          <rect class="cls-2" x="-11.05" y="-202.91" width="132.76" height="201.65" transform="translate(58.45 13.99) rotate(-30)"/>
        </g>
        <g class="cls-11">
          <g class="cls-14">
            <g class="cls-9">
              <path class="cls-12" d="M35.49,206.22c-1.12-.03-2.14-.64-2.71-1.6L-42.29,77.25c-.3-.5-.45-1.08-.45-1.66V-4.62c5.1,6.17,10.86,13.11,17.11,20.67,44.48,53.63,47.09,55.99,57.84,69.76,35.81,45.76,53.7,68.63,60.34,93.64.98,3.64,3.62,14.24,4.61,28.63l-61.67-1.86Z"/>
            </g>
          </g>
        </g>
      </g>
      <g>
        <g class="cls-13">
          <g class="cls-4">
            <path class="cls-10" d="M50.49,43.61l-24.32,13.15c-.35.19-.78.19-1.13,0L.63,43.55c-.6-.32-.81-1.08-.46-1.66L24.51.59c.46-.78,1.59-.78,2.06,0l24.38,41.36c.34.58.13,1.34-.46,1.66"/>
          </g>
        </g>
        <path class="cls-8" d="M50.97,55.4h-26.98c-2.86,0-5.19-2.33-5.19-5.19V12.74c0-2.86,2.33-5.19,5.19-5.19h26.98c2.86,0,5.19,2.33,5.19,5.19v37.46c0,2.86-2.33,5.19-5.19,5.19ZM23.99,8.51c-2.34,0-4.24,1.9-4.24,4.24v37.46c0,2.34,1.9,4.24,4.24,4.24h26.98c2.34,0,4.24-1.9,4.24-4.24V12.74c0-2.34-1.9-4.24-4.24-4.24h-26.98Z"/>
        <path class="cls-8" d="M45.47,17.87h-19.91c-.26,0-.48-.21-.48-.48s.21-.48.48-.48h19.91c.26,0,.48.21.48.48s-.21.48-.48.48Z"/>
        <path class="cls-8" d="M45.47,22.05h-19.91c-.26,0-.48-.21-.48-.48s.21-.48.48-.48h19.91c.26,0,.48.21.48.48s-.21.48-.48.48Z"/>
        <path class="cls-8" d="M45.47,26.24h-19.91c-.26,0-.48-.21-.48-.48s.21-.48.48-.48h19.91c.26,0,.48.21.48.48s-.21.48-.48.48Z"/>
        <path class="cls-8" d="M45.47,30.43h-19.91c-.26,0-.48-.21-.48-.48s.21-.48.48-.48h19.91c.26,0,.48.21.48.48s-.21.48-.48.48Z"/>
        <path class="cls-8" d="M45.47,34.61h-19.91c-.26,0-.48-.21-.48-.48s.21-.48.48-.48h19.91c.26,0,.48.21.48.48s-.21.48-.48.48Z"/>
        <path class="cls-8" d="M45.47,38.8h-19.91c-.26,0-.48-.21-.48-.48s.21-.48.48-.48h19.91c.26,0,.48.21.48.48s-.21.48-.48.48Z"/>
      </g>
    </g>
  </g>
</svg>