<?xml version="1.0" encoding="UTF-8"?>
<svg id="Capa_1" data-name="Capa 1" xmlns="http://www.w3.org/2000/svg" xmlns:xlink="http://www.w3.org/1999/xlink" viewBox="0 0 53.52 56.9">
  <defs>
    <style>
      .cls-1 {
        fill: #80b8e5;
      }

      .cls-2 {
        stroke: #4690ce;
        stroke-miterlimit: 10;
      }

      .cls-2, .cls-3 {
        fill: none;
      }

      .cls-4 {
        clip-path: url(#clippath-1);
      }

      .cls-5 {
        fill: #4e4d4d;
      }

      .cls-6 {
        clip-path: url(#clippath-3);
      }

      .cls-7 {
        fill: #d88008;
      }

      .cls-8 {
        clip-path: url(#clippath);
      }

      .cls-9 {
        opacity: .5;
      }
    </style>
    <clipPath id="clippath">
      <path class="cls-3" d="M-259.36-388.48V-82.84C-194.85-56.86-83.94-21.7,57.19-23.58c130.25-1.73,232.99-34.29,295.46-59.52v-305.38H-259.36Z"/>
    </clipPath>
    <clipPath id="clippath-1">
      <path class="cls-3" d="M-234.46-384.81V-73.28c38.71,14.14,89.18,29.26,149.2,39.08H178.01c24.16-3.95,46.81-8.77,67.79-14.05v-336.55H-234.46Z"/>
    </clipPath>
    <clipPath id="clippath-3">
      <rect class="cls-3" width="51.12" height="56.9"/>
    </clipPath>
  </defs>
  <g>
    <g class="cls-8">
      <rect class="cls-2" x="112.24" y="-97.35" width="215.48" height="327.3" transform="translate(-3.68 118.87) rotate(-30)"/>
    </g>
    <g class="cls-4">
      <rect class="cls-1" x="-169.53" y="-171.69" width="132.76" height="201.65" transform="translate(21.61 -61.07) rotate(-30)"/>
    </g>
  </g>
  <g>
    <g class="cls-9">
      <g class="cls-6">
        <path class="cls-7" d="M50.49,43.61l-24.32,13.15c-.35.19-.78.19-1.14,0L.63,43.55c-.6-.32-.81-1.08-.46-1.66L24.51.59c.46-.78,1.59-.78,2.06,0l24.38,41.36c.34.58.13,1.34-.46,1.66"/>
      </g>
    </g>
    <path class="cls-5" d="M49.56,49.09H11.16c-2.18,0-3.96-1.78-3.96-3.96v-20.67c0-.4.05-.76.15-1.06l.47-1.5.44,1.51c.23.79.95,1.32,1.79,1.32h40.63c.84,0,1.56-.53,1.79-1.32l.44-1.52.47,1.51c.09.31.14.66.14,1.06v20.67c0,2.18-1.78,3.96-3.96,3.96ZM8.15,24.97v20.16c0,1.66,1.35,3.01,3.01,3.01h38.4c1.66,0,3.01-1.35,3.01-3.01v-20.16c-.5.45-1.17.71-1.89.71H10.04c-.73,0-1.39-.26-1.89-.71ZM46.04,41.06h-4.85c-1.57,0-2.85-1.28-2.85-2.85v-4.86c0-1.57,1.28-2.85,2.85-2.85h4.85c1.57,0,2.85,1.28,2.85,2.85v4.86c0,1.57-1.28,2.85-2.85,2.85ZM41.19,31.46c-1.04,0-1.89.85-1.89,1.89v4.86c0,1.04.85,1.89,1.89,1.89h4.85c1.04,0,1.89-.85,1.89-1.89v-4.86c0-1.04-.85-1.89-1.89-1.89h-4.85ZM32.78,41.06h-4.84c-1.57,0-2.85-1.28-2.85-2.85v-4.86c0-1.57,1.28-2.85,2.85-2.85h4.84c1.57,0,2.85,1.28,2.85,2.85v4.86c0,1.57-1.28,2.85-2.85,2.85ZM27.93,31.46c-1.04,0-1.89.85-1.89,1.89v4.86c0,1.04.85,1.89,1.89,1.89h4.84c1.04,0,1.89-.85,1.89-1.89v-4.86c0-1.04-.85-1.89-1.89-1.89h-4.84ZM19.52,41.06h-4.85c-1.57,0-2.85-1.28-2.85-2.85v-4.86c0-1.57,1.28-2.85,2.85-2.85h4.85c1.57,0,2.85,1.28,2.85,2.85v4.86c0,1.57-1.28,2.85-2.85,2.85ZM14.67,31.46c-1.04,0-1.89.85-1.89,1.89v4.86c0,1.04.85,1.89,1.89,1.89h4.85c1.04,0,1.89-.85,1.89-1.89v-4.86c0-1.04-.85-1.89-1.89-1.89h-4.85Z"/>
    <path class="cls-5" d="M19.52,41.06h-4.85c-1.57,0-2.84-1.28-2.84-2.85v-4.86c0-1.57,1.28-2.85,2.84-2.85h4.85c1.57,0,2.85,1.28,2.85,2.85v4.86c0,1.57-1.28,2.85-2.85,2.85ZM14.67,31.46c-1.04,0-1.89.85-1.89,1.89v4.86c0,1.04.85,1.89,1.89,1.89h4.85c1.04,0,1.89-.85,1.89-1.89v-4.86c0-1.04-.85-1.89-1.89-1.89h-4.85Z"/>
    <path class="cls-5" d="M32.78,41.06h-4.85c-1.57,0-2.85-1.28-2.85-2.85v-4.86c0-1.57,1.28-2.85,2.85-2.85h4.85c1.57,0,2.85,1.28,2.85,2.85v4.86c0,1.57-1.28,2.85-2.85,2.85ZM27.93,31.46c-1.04,0-1.89.85-1.89,1.89v4.86c0,1.04.85,1.89,1.89,1.89h4.85c1.04,0,1.89-.85,1.89-1.89v-4.86c0-1.04-.85-1.89-1.89-1.89h-4.85Z"/>
    <path class="cls-5" d="M46.04,41.06h-4.85c-1.57,0-2.85-1.28-2.85-2.85v-4.86c0-1.57,1.28-2.85,2.85-2.85h4.85c1.57,0,2.85,1.28,2.85,2.85v4.86c0,1.57-1.28,2.85-2.85,2.85ZM41.19,31.46c-1.04,0-1.89.85-1.89,1.89v4.86c0,1.04.85,1.89,1.89,1.89h4.85c1.04,0,1.89-.85,1.89-1.89v-4.86c0-1.04-.85-1.89-1.89-1.89h-4.85Z"/>
    <path class="cls-5" d="M50.67,25.68H10.04c-1.25,0-2.36-.83-2.7-2.01-.09-.21-.14-.51-.14-.84v-8.06c0-1.57,1.28-2.85,2.85-2.85h40.63c1.57,0,2.85,1.28,2.85,2.85v8.06c0,.33-.05.63-.16.89-.33,1.15-1.42,1.96-2.69,1.96ZM10.04,12.88c-1.04,0-1.89.85-1.89,1.89v8.06c0,.2.03.38.09.52.24.83.98,1.37,1.8,1.37h40.63c.84,0,1.56-.53,1.79-1.32.08-.19.11-.37.11-.57v-8.06c0-1.04-.85-1.89-1.89-1.89H10.04Z"/>
    <path class="cls-5" d="M19.52,41.06h-4.85c-1.57,0-2.84-1.28-2.84-2.85v-4.86c0-1.57,1.28-2.85,2.84-2.85h4.85c1.57,0,2.85,1.28,2.85,2.85v4.86c0,1.57-1.28,2.85-2.85,2.85ZM14.67,31.46c-1.04,0-1.89.85-1.89,1.89v4.86c0,1.04.85,1.89,1.89,1.89h4.85c1.04,0,1.89-.85,1.89-1.89v-4.86c0-1.04-.85-1.89-1.89-1.89h-4.85Z"/>
    <path class="cls-5" d="M32.78,41.06h-4.85c-1.57,0-2.85-1.28-2.85-2.85v-4.86c0-1.57,1.28-2.85,2.85-2.85h4.85c1.57,0,2.85,1.28,2.85,2.85v4.86c0,1.57-1.28,2.85-2.85,2.85ZM27.93,31.46c-1.04,0-1.89.85-1.89,1.89v4.86c0,1.04.85,1.89,1.89,1.89h4.85c1.04,0,1.89-.85,1.89-1.89v-4.86c0-1.04-.85-1.89-1.89-1.89h-4.85Z"/>
    <path class="cls-5" d="M46.04,41.06h-4.85c-1.57,0-2.85-1.28-2.85-2.85v-4.86c0-1.57,1.28-2.85,2.85-2.85h4.85c1.57,0,2.85,1.28,2.85,2.85v4.86c0,1.57-1.28,2.85-2.85,2.85ZM41.19,31.46c-1.04,0-1.89.85-1.89,1.89v4.86c0,1.04.85,1.89,1.89,1.89h4.85c1.04,0,1.89-.85,1.89-1.89v-4.86c0-1.04-.85-1.89-1.89-1.89h-4.85Z"/>
  </g>
</svg>