<?xml version="1.0" encoding="UTF-8"?>
<svg xmlns="http://www.w3.org/2000/svg" xmlns:xlink="http://www.w3.org/1999/xlink" viewBox="0 0 68.32 57.07">
  <defs>
    <style>
      .cls-1 {
        fill: #80b8e5;
      }

      .cls-2 {
        stroke: #4690ce;
        stroke-miterlimit: 10;
      }

      .cls-2, .cls-3 {
        fill: none;
      }

      .cls-4 {
        clip-path: url(#clippath-4);
      }

      .cls-5 {
        fill: #4690ce;
      }

      .cls-6 {
        clip-path: url(#clippath-1);
      }

      .cls-7 {
        isolation: isolate;
      }

      .cls-8 {
        fill: #4e4d4d;
      }

      .cls-9 {
        clip-path: url(#clippath-3);
      }

      .cls-10 {
        fill: #0075af;
      }

      .cls-11 {
        clip-path: url(#clippath-2);
      }

      .cls-12 {
        fill: #27a1db;
      }

      .cls-13 {
        opacity: .5;
      }

      .cls-14 {
        mix-blend-mode: multiply;
        opacity: .08;
      }
    </style>
    <clipPath id="clippath-1">
      <path class="cls-3" d="M22.91-384.81V-73.28c38.71,14.14,89.18,29.26,149.2,39.08h263.27c24.16-3.95,46.81-8.77,67.79-14.05v-336.55H22.91Z"/>
    </clipPath>
    <clipPath id="clippath-2">
      <path class="cls-3" d="M-1.99-388.48V-82.84C62.52-56.86,173.43-21.7,314.55-23.58c130.25-1.73,232.99-34.29,295.46-59.52v-305.38H-1.99Z"/>
    </clipPath>
    <clipPath id="clippath-3">
      <rect class="cls-3" x="-122.95" y="-15.3" width="312.73" height="374.54"/>
    </clipPath>
    <clipPath id="clippath-4">
      <rect class="cls-3" y=".09" width="51.12" height="56.9"/>
    </clipPath>
  </defs>
  <g class="cls-7">
    <g id="Capa_1" data-name="Capa 1">
      <g>
        <g class="cls-6">
          <rect class="cls-1" x="87.84" y="-171.69" width="132.76" height="201.65" transform="translate(56.09 67.62) rotate(-30)"/>
          <rect class="cls-5" x="9.41" y="-171.69" width="132.76" height="201.65" transform="translate(45.58 28.4) rotate(-30)"/>
          <rect class="cls-2" x="81.56" y="-202.91" width="132.76" height="201.65" transform="translate(70.86 60.29) rotate(-30)"/>
        </g>
        <g class="cls-11">
          <g class="cls-14">
            <g class="cls-9">
              <path class="cls-12" d="M25.42-15.3V53.91c0,.58-.16,1.16-.45,1.66L-62.73,204.35c-.59.99-1.65,1.6-2.81,1.6h-57.41c.68-22.06,4.42-56.54,20.31-95.24,14.88-36.25,34.65-62.17,48.93-78.16,1.83,16.89,5.1,34.64,11.41,35.36,5.97.69,11.03-14.3,20.53-30.57C-12.99,22.31,1.26,3.33,25.42-15.3"/>
              <path class="cls-12" d="M128.11,206.22c-1.12-.03-2.14-.64-2.71-1.6L50.33,77.25c-.3-.5-.45-1.08-.45-1.66V-4.62c5.1,6.17,10.86,13.11,17.11,20.67,44.48,53.63,47.09,55.99,57.84,69.76,35.81,45.76,53.7,68.63,60.34,93.64.98,3.64,3.62,14.24,4.61,28.63l-61.67-1.86Z"/>
            </g>
          </g>
        </g>
      </g>
      <g>
        <g class="cls-13">
          <g class="cls-4">
            <path class="cls-10" d="M50.49,43.7l-24.31,13.15c-.35.19-.78.19-1.13,0L.63,43.64c-.6-.32-.81-1.08-.46-1.66L24.51.68c.46-.78,1.59-.78,2.06,0l24.38,41.36c.34.58.13,1.34-.46,1.66"/>
          </g>
        </g>
        <path class="cls-8" d="M29.39,54.84h-12.43c-2.12,0-3.84-1.71-3.84-3.82v-27.78c0-2.12,1.72-3.84,3.84-3.84h12.43v35.43ZM16.96,20.36c-1.59,0-2.88,1.29-2.88,2.88v27.78c0,1.58,1.29,2.86,2.88,2.86h11.48V20.36h-11.48Z"/>
        <path class="cls-8" d="M48.68,54.84h-15.91v-21.62c0-.39.32-.71.71-.71h14.5c.39,0,.71.32.71.71v21.62ZM33.72,53.88h14v-20.42h-14v20.42Z"/>
        <path class="cls-8" d="M64.48,54.84h-12.43V19.41h12.43c2.11,0,3.84,1.72,3.84,3.84v27.78c0,2.11-1.72,3.82-3.84,3.82ZM53.01,53.88h11.48c1.59,0,2.88-1.28,2.88-2.86v-27.78c0-1.59-1.29-2.88-2.88-2.88h-11.48v33.52Z"/>
        <path class="cls-8" d="M48.68,54.84h-15.91v-21.62c0-.39.32-.71.71-.71h14.5c.39,0,.71.32.71.71v21.62ZM33.72,53.88h14v-20.42h-14v20.42Z"/>
        <path class="cls-8" d="M53.01,54.84h-5.29v-21.37h-14v21.37h-5.29V14.69c0-1.97,1.6-3.57,3.57-3.57h17.43c1.97,0,3.57,1.6,3.57,3.57v40.15ZM48.68,53.88h3.38V14.69c0-1.44-1.17-2.62-2.62-2.62h-17.43c-1.44,0-2.62,1.17-2.62,2.62v39.2h3.38v-20.67c0-.39.32-.71.71-.71h14.5c.39,0,.71.32.71.71v20.67ZM47.49,22.85h-2c-.83,0-1.5-.67-1.5-1.5v-3.94c0-.84.67-1.52,1.5-1.52h2c.83,0,1.5.68,1.5,1.52v3.94c0,.83-.67,1.5-1.5,1.5ZM45.49,16.84c-.31,0-.55.25-.55.56v3.94c0,.3.25.55.55.55h2c.3,0,.55-.25.55-.55v-3.94c0-.32-.24-.56-.55-.56h-2ZM41.73,22.85h-2c-.83,0-1.5-.67-1.5-1.5v-3.94c0-.84.67-1.52,1.5-1.52h2c.83,0,1.5.68,1.5,1.52v3.94c0,.83-.67,1.5-1.5,1.5ZM39.73,16.84c-.31,0-.55.25-.55.56v3.94c0,.3.25.55.55.55h2c.3,0,.55-.25.55-.55v-3.94c0-.32-.24-.56-.55-.56h-2ZM35.95,22.85h-1.98c-.84,0-1.52-.67-1.52-1.5v-3.94c0-.84.68-1.52,1.52-1.52h1.98c.85,0,1.52.67,1.52,1.52v3.94c0,.83-.68,1.5-1.52,1.5ZM33.97,16.84c-.31,0-.56.25-.56.56v3.94c0,.3.26.55.56.55h1.98c.32,0,.57-.24.57-.55v-3.94c0-.32-.24-.56-.57-.56h-1.98Z"/>
        <path class="cls-8" d="M48.68,54.84h-15.91v-21.62c0-.39.32-.71.71-.71h14.5c.39,0,.71.32.71.71v21.62ZM33.72,53.88h14v-20.42h-14v20.42Z"/>
        <path class="cls-8" d="M35.95,22.85h-1.98c-.84,0-1.52-.67-1.52-1.5v-3.94c0-.84.68-1.52,1.52-1.52h1.98c.85,0,1.52.67,1.52,1.52v3.94c0,.83-.68,1.5-1.52,1.5ZM33.97,16.84c-.31,0-.57.25-.57.56v3.94c0,.3.26.55.57.55h1.98c.32,0,.56-.24.56-.55v-3.94c0-.32-.25-.56-.56-.56h-1.98Z"/>
        <path class="cls-8" d="M47.49,22.85h-2c-.83,0-1.5-.67-1.5-1.5v-3.94c0-.84.67-1.52,1.5-1.52h2c.83,0,1.5.68,1.5,1.52v3.94c0,.83-.67,1.5-1.5,1.5ZM45.49,16.84c-.31,0-.55.25-.55.56v3.94c0,.3.25.55.55.55h2c.3,0,.55-.25.55-.55v-3.94c0-.32-.24-.56-.55-.56h-2Z"/>
        <path class="cls-8" d="M41.73,22.85h-2c-.83,0-1.5-.67-1.5-1.5v-3.94c0-.84.67-1.52,1.5-1.52h2c.83,0,1.5.68,1.5,1.52v3.94c0,.83-.67,1.5-1.5,1.5ZM39.73,16.84c-.31,0-.55.25-.55.56v3.94c0,.3.25.55.55.55h2c.3,0,.55-.25.55-.55v-3.94c0-.32-.24-.56-.55-.56h-2Z"/>
        <path class="cls-8" d="M24.58,32.97h-7.62c-.8,0-1.46-.65-1.46-1.46v-5.1c0-.8.65-1.46,1.46-1.46h7.62c.8,0,1.45.65,1.45,1.46v5.1c0,.8-.65,1.46-1.45,1.46ZM16.96,25.91c-.28,0-.5.22-.5.5v5.1c0,.28.23.5.5.5h7.62c.28,0,.5-.23.5-.5v-5.1c0-.28-.22-.5-.5-.5h-7.62Z"/>
        <path class="cls-8" d="M64.49,32.97h-7.62c-.8,0-1.46-.65-1.46-1.46v-5.1c0-.8.65-1.46,1.46-1.46h7.62c.8,0,1.45.65,1.45,1.46v5.1c0,.8-.65,1.46-1.45,1.46ZM56.87,25.91c-.28,0-.5.22-.5.5v5.1c0,.28.23.5.5.5h7.62c.28,0,.5-.23.5-.5v-5.1c0-.28-.22-.5-.5-.5h-7.62Z"/>
      </g>
    </g>
  </g>
</svg>