<?xml version="1.0" encoding="UTF-8"?>
<svg xmlns="http://www.w3.org/2000/svg" xmlns:xlink="http://www.w3.org/1999/xlink" viewBox="0 0 331.81 49.7">
  <defs>
    <style>
      .cls-1 {
        fill: #80b8e5;
      }

      .cls-2 {
        stroke: #4690ce;
        stroke-miterlimit: 10;
      }

      .cls-2, .cls-3 {
        fill: none;
      }

      .cls-4 {
        clip-path: url(#clippath-4);
      }

      .cls-5 {
        opacity: .8;
      }

      .cls-6 {
        opacity: .8;
      }

      .cls-7 {
        clip-path: url(#clippath-1);
      }

      .cls-8 {
        isolation: isolate;
      }

      .cls-9 {
        clip-path: url(#clippath-3);
      }

      .cls-10 {
        clip-path: url(#clippath-2);
      }

      .cls-11 {
        fill: #27a1db;
      }

      .cls-12 {
        clip-path: url(#clippath);
      }

      .cls-13 {
        mix-blend-mode: multiply;
        opacity: .08;
      }
    </style>
    <clipPath id="clippath">
      <path class="cls-3" d="M-1.99-506.36V-200.72c64.51,25.99,175.41,61.14,316.54,59.27,130.25-1.73,232.99-34.29,295.46-59.52v-305.38H-1.99Z"/>
    </clipPath>
    <clipPath id="clippath-1">
      <path class="cls-3" d="M-1.99-506.36V-200.72c64.51,25.99,175.41,61.14,316.54,59.27,130.25-1.73,232.99-34.29,295.46-59.52v-305.38H-1.99Z"/>
    </clipPath>
    <clipPath id="clippath-2">
      <rect class="cls-3" x="-122.95" y="-133.18" width="312.73" height="374.54"/>
    </clipPath>
    <clipPath id="clippath-3">
      <rect class="cls-3" x="-38.44" y="-21.45" width="139.49" height="155.27"/>
    </clipPath>
    <clipPath id="clippath-4">
      <rect class="cls-3" x="11.1" y="14.83" width="18.31" height="20.38"/>
    </clipPath>
  </defs>
  <g class="cls-8">
    <g id="Capa_1" data-name="Capa 1">
      <g>
        <g class="cls-12">
          <rect class="cls-1" x="379.5" y="-210.22" width="215.48" height="327.3" transform="translate(88.57 237.38) rotate(-30)"/>
          <rect class="cls-2" x="369.61" y="-215.22" width="215.48" height="327.3" transform="translate(89.74 231.77) rotate(-30)"/>
        </g>
        <g class="cls-7">
          <g class="cls-13">
            <g class="cls-10">
              <path class="cls-11" d="M25.42-133.18V-63.97c0,.58-.16,1.16-.45,1.66L-62.73,86.47c-.59.99-1.65,1.6-2.81,1.6h-57.41c.68-22.06,4.42-56.54,20.31-95.24,14.88-36.25,34.65-62.17,48.93-78.16,1.83,16.89,5.1,34.64,11.41,35.36,5.97.69,11.03-14.3,20.53-30.57,8.79-15.05,23.03-34.03,47.2-52.66"/>
              <path class="cls-11" d="M128.11,88.34c-1.12-.03-2.14-.64-2.71-1.6L50.33-40.63c-.3-.5-.45-1.08-.45-1.66v-80.21c5.1,6.17,10.86,13.11,17.11,20.67,44.48,53.63,47.09,55.99,57.84,69.76,35.81,45.76,53.7,68.63,60.34,93.64.98,3.64,3.62,14.24,4.61,28.63l-61.67-1.86Z"/>
              <g class="cls-5">
                <g class="cls-9">
                  <path class="cls-11" d="M99.34,97.55l-66.35,35.88c-.97.52-2.13.52-3.1,0l-66.62-36.03c-1.63-.88-2.2-2.94-1.26-4.53L28.45-19.85c1.26-2.14,4.35-2.14,5.61,0l66.53,112.86c.94,1.6.37,3.65-1.26,4.53"/>
                </g>
              </g>
            </g>
          </g>
        </g>
      </g>
      <g>
        <path class="cls-11" d="M66.8,41.35l10.9.04c.59,0,1.13.11,1.62.33.5.22.93.52,1.3.9.37.39.66.83.88,1.33.22.5.32,1.04.32,1.63,0,1.2-.39,2.19-1.19,2.96-.79.77-1.77,1.15-2.95,1.15h-15.51c-.14,0-.27-.03-.4-.08-.1,0-.2-.03-.31-.08-.87-.23-1.58-.7-2.14-1.42-.56-.72-.84-1.56-.84-2.54V4.16c0-.59.1-1.13.32-1.63.22-.5.51-.93.88-1.29.37-.36.81-.64,1.32-.86.51-.22,1.05-.33,1.61-.33s1.13.11,1.62.33c.5.22.94.51,1.32.86.38.36.68.79.9,1.29.21.5.32,1.04.32,1.63v37.19Z"/>
        <path class="cls-11" d="M141.59,25.51l11.25-11.09c.44-.44.94-.77,1.47-.98.54-.21,1.08-.32,1.63-.32s1.08.1,1.59.3c.51.2.96.49,1.35.89.42.42.72.89.9,1.42.18.52.26,1.06.23,1.59-.03.54-.15,1.07-.37,1.59-.22.52-.53,1-.92,1.42l-11.17,11.09,11.09,10.94c.39.42.69.89.9,1.42.21.52.32,1.06.33,1.61.01.55-.08,1.09-.29,1.63-.21.54-.52,1-.94,1.39-.89.84-1.9,1.26-3.02,1.26s-2.14-.42-2.98-1.26l-11.13-11.01-11.17,11.05c-.39.42-.84.74-1.35.95-.51.21-1.03.31-1.55.31-1.1,0-2.09-.42-2.98-1.26-.42-.39-.73-.84-.94-1.36-.21-.51-.31-1.04-.29-1.57.01-.54.12-1.07.33-1.59.21-.52.51-1,.9-1.42l11.09-11.02-11.33-11.21c-.39-.39-.69-.85-.9-1.38-.21-.52-.31-1.06-.29-1.59.01-.54.12-1.07.33-1.59.21-.52.52-1,.94-1.42.89-.84,1.9-1.26,3.02-1.26.52,0,1.04.1,1.57.32.52.21.99.53,1.41.94l11.29,11.21Z"/>
        <path class="cls-11" d="M182.24,25.51l11.25-11.09c.44-.44.94-.77,1.47-.98.54-.21,1.08-.32,1.63-.32s1.08.1,1.59.3c.51.2.96.49,1.35.89.42.42.72.89.9,1.42.18.52.26,1.06.23,1.59-.03.54-.15,1.07-.37,1.59-.22.52-.53,1-.92,1.42l-11.17,11.09,11.09,10.94c.39.42.69.89.9,1.42.21.52.32,1.06.33,1.61.01.55-.08,1.09-.29,1.63-.21.54-.52,1-.94,1.39-.89.84-1.9,1.26-3.02,1.26s-2.14-.42-2.98-1.26l-11.13-11.01-11.17,11.05c-.39.42-.84.74-1.35.95-.51.21-1.03.31-1.55.31-1.1,0-2.09-.42-2.98-1.26-.42-.39-.73-.84-.94-1.36-.21-.51-.31-1.04-.29-1.57.01-.54.12-1.07.33-1.59.21-.52.51-1,.9-1.42l11.09-11.02-11.33-11.21c-.39-.39-.69-.85-.9-1.38-.21-.52-.31-1.06-.29-1.59.01-.54.12-1.07.33-1.59.21-.52.52-1,.94-1.42.89-.84,1.9-1.26,3.02-1.26.52,0,1.04.1,1.57.32.52.21.99.53,1.41.94l11.29,11.21Z"/>
        <path class="cls-11" d="M216.1,45.41c0,.58-.11,1.13-.33,1.65-.22.52-.52.98-.9,1.36-.38.38-.82.68-1.33.91-.51.22-1.07.33-1.67.33s-1.12-.11-1.65-.33c-.52-.22-.98-.52-1.37-.91-.39-.38-.7-.83-.92-1.36-.22-.53-.33-1.08-.33-1.65v-28.09c0-.57.12-1.12.35-1.63.23-.51.55-.96.94-1.36.39-.39.85-.7,1.37-.92.52-.22,1.08-.33,1.68-.33s1.15.11,1.65.33c.5.22.94.53,1.31.92.38.39.67.84.88,1.36.21.51.31,1.06.31,1.63v28.09Z"/>
        <path class="cls-11" d="M216.1,4.26c0,2.35-1.9,4.26-4.25,4.26s-4.25-1.91-4.25-4.26,1.9-4.26,4.25-4.26,4.25,1.91,4.25,4.26"/>
        <path class="cls-11" d="M19.48.16v9.09c0,.08-.02.15-.06.22L7.91,29c-.08.13-.22.21-.37.21H0c.09-2.9.58-7.42,2.67-12.5,1.95-4.76,4.55-8.16,6.42-10.26.24,2.22.67,4.55,1.5,4.64.78.09,1.45-1.88,2.7-4.01,1.15-1.97,3.02-4.47,6.2-6.91"/>
        <path class="cls-11" d="M32.96,29.24c-.15,0-.28-.08-.36-.21l-9.86-16.72c-.04-.07-.06-.14-.06-.22V1.56c.67.81,1.43,1.72,2.25,2.71,5.84,7.04,6.18,7.35,7.59,9.16,4.7,6.01,7.05,9.01,7.92,12.29.13.48.48,1.87.61,3.76l-8.1-.24Z"/>
        <g class="cls-6">
          <g class="cls-4">
            <path class="cls-11" d="M29.18,30.45l-8.71,4.71c-.13.07-.28.07-.4,0l-8.75-4.73c-.21-.12-.29-.39-.16-.6l8.72-14.8c.17-.28.57-.28.74,0l8.73,14.82c.12.21.05.48-.16.6"/>
          </g>
        </g>
        <path class="cls-11" d="M40.57,32.69c.25,0,.44.23.41.48-.21,1.82-.7,3.8-1.69,5.75-4.3,8.45-16.17,12.68-25.71,9.2C3.51,44.44.55,33.84.21,32.55c-.01-.04-.02-.09-.03-.13h8.01c.07,0,.14.02.2.05l9.08,4.91,1.1.59.2.11,1.3.71c.13.07.28.07.41,0l.55-.3,11.09-6c.07-.03.14-.05.22-.05l8.23.25Z"/>
        <path class="cls-11" d="M119.87,34c.75-.73,1.13-1.68,1.13-2.86-.02-2.51-.53-4.87-1.51-7.07-.98-2.2-2.31-4.12-3.98-5.74-1.67-1.63-3.61-2.91-5.82-3.86-2.21-.95-4.56-1.42-7.06-1.42s-4.9.48-7.12,1.44c-2.22.96-4.16,2.27-5.82,3.92-1.66,1.65-2.97,3.59-3.94,5.82-.97,2.23-1.45,4.61-1.45,7.15s.48,4.91,1.45,7.13c.97,2.21,2.28,4.16,3.94,5.82,1.66,1.67,3.6,2.98,5.82,3.94,2.2.95,4.56,1.43,7.07,1.44h2.43s.08,0,.12,0c3.57,0,7.03-1.03,10-2.98,1.91-1.26,2.45-3.83,1.2-5.74-1.25-1.92-3.82-2.45-5.73-1.2-1.62,1.06-3.51,1.62-5.46,1.62-.04,0-.08,0-.12,0h0s-2.39,0-2.39,0c-1.04,0-2.04-.15-2.98-.44-.95-.3-1.81-.72-2.6-1.27-.79-.55-1.49-1.22-2.08-2-.6-.78-1.07-1.65-1.4-2.59h23.35c1.22,0,2.21-.37,2.97-1.09M93.29,28.17c.28-1.02.71-1.95,1.3-2.78.59-.83,1.3-1.55,2.13-2.15.83-.6,1.76-1.06,2.79-1.38,1.03-.32,2.14-.48,3.31-.48s2.28.15,3.33.46c1.04.31,1.99.75,2.83,1.34.84.59,1.56,1.31,2.16,2.15.6.85,1.04,1.79,1.32,2.84h-19.18Z"/>
        <g>
          <path class="cls-11" d="M242.8,49.57c-.33,0-.58-.1-.75-.29s-.27-.45-.27-.78V16.11c0-.35.1-.62.29-.8.19-.18.45-.27.78-.27h11.31c3.59,0,6.34.86,8.25,2.57,1.91,1.72,2.87,4.16,2.87,7.33s-.96,5.62-2.87,7.33c-1.91,1.72-4.66,2.57-8.25,2.57h-10.34v13.64c0,.32-.08.58-.24.78s-.42.29-.78.29ZM243.82,32.96h10.3c3.01,0,5.27-.68,6.77-2.04s2.26-3.35,2.26-5.97-.75-4.61-2.26-5.97c-1.5-1.36-3.76-2.04-6.77-2.04h-10.3v16.02Z"/>
          <path class="cls-11" d="M272.71,49.57c-.33,0-.58-.1-.75-.29s-.27-.45-.27-.78V16.11c0-.35.1-.62.29-.8.19-.18.45-.27.78-.27h11.31c3.59,0,6.34.83,8.25,2.48,1.91,1.65,2.87,4.01,2.87,7.09,0,1.97-.44,3.67-1.31,5.08-.87,1.41-2.14,2.48-3.81,3.2-1.67.73-3.67,1.09-6,1.09l.53-.58h.39c1.23,0,2.29.32,3.18.97.89.65,1.72,1.7,2.5,3.16l5.59,10.39c.16.26.23.52.22.78-.02.26-.1.47-.24.63s-.33.24-.56.24c-.29,0-.53-.07-.7-.22-.18-.15-.33-.33-.46-.56l-5.63-10.49c-.91-1.68-1.91-2.8-3.01-3.35-1.1-.55-2.61-.82-4.52-.82h-7.62v14.37c0,.32-.08.58-.24.78s-.42.29-.78.29ZM273.73,32.23h10.15c3.07,0,5.37-.65,6.89-1.94s2.28-3.21,2.28-5.73-.76-4.39-2.28-5.68c-1.52-1.3-3.82-1.94-6.89-1.94h-10.15v15.3Z"/>
          <path class="cls-11" d="M316.8,49.66c-3.08,0-5.73-.71-7.97-2.13-2.23-1.43-3.96-3.45-5.17-6.07s-1.82-5.73-1.82-9.32c0-2.72.34-5.15,1.02-7.31.68-2.15,1.67-3.98,2.96-5.49,1.3-1.5,2.86-2.66,4.71-3.47,1.84-.81,3.93-1.21,6.26-1.21,3.11,0,5.79.7,8.04,2.11s3.97,3.42,5.17,6.02c1.2,2.61,1.8,5.71,1.8,9.3,0,2.72-.35,5.16-1.04,7.33-.7,2.17-1.69,4.01-2.99,5.54-1.3,1.52-2.87,2.69-4.71,3.49-1.84.81-3.93,1.21-6.26,1.21ZM316.8,47.67c2.72,0,5.03-.61,6.94-1.82,1.91-1.21,3.37-2.98,4.37-5.29,1-2.31,1.5-5.12,1.5-8.42,0-4.92-1.11-8.73-3.33-11.44-2.22-2.7-5.38-4.05-9.49-4.05-2.69,0-4.99.61-6.9,1.82-1.91,1.21-3.37,2.98-4.37,5.29-1,2.32-1.5,5.11-1.5,8.38,0,4.89,1.12,8.7,3.35,11.44,2.23,2.74,5.37,4.1,9.42,4.1Z"/>
        </g>
        <path class="cls-11" d="M231.16,48.8c-.72,0-1.31-.58-1.31-1.31V2.06c0-.72.58-1.31,1.31-1.31s1.31.58,1.31,1.31v45.43c0,.72-.58,1.31-1.31,1.31Z"/>
      </g>
    </g>
  </g>
</svg>