<?xml version="1.0" encoding="UTF-8"?>
<svg xmlns="http://www.w3.org/2000/svg" xmlns:xlink="http://www.w3.org/1999/xlink" viewBox="0 0 51.12 57.07">
  <defs>
    <style>
      .cls-1 {
        fill: #80b8e5;
      }

      .cls-2 {
        stroke: #4690ce;
        stroke-miterlimit: 10;
      }

      .cls-2, .cls-3 {
        fill: none;
      }

      .cls-4 {
        clip-path: url(#clippath-4);
      }

      .cls-5 {
        fill: #4690ce;
      }

      .cls-6 {
        clip-path: url(#clippath-1);
      }

      .cls-7 {
        isolation: isolate;
      }

      .cls-8 {
        fill: #4e4d4d;
      }

      .cls-9 {
        clip-path: url(#clippath-3);
      }

      .cls-10 {
        fill: #4b3e7a;
      }

      .cls-11 {
        clip-path: url(#clippath-2);
      }

      .cls-12 {
        fill: #27a1db;
      }

      .cls-13 {
        opacity: .5;
      }

      .cls-14 {
        mix-blend-mode: multiply;
        opacity: .08;
      }
    </style>
    <clipPath id="clippath-1">
      <path class="cls-3" d="M-149.64-384.81V-73.28C-110.93-59.14-60.46-44.02-.44-34.2h263.27c24.16-3.95,46.81-8.77,67.79-14.05v-336.55H-149.64Z"/>
    </clipPath>
    <clipPath id="clippath-2">
      <path class="cls-3" d="M-174.54-388.48V-82.84C-110.03-56.86.87-21.7,142-23.58c130.25-1.73,232.99-34.29,295.46-59.52v-305.38H-174.54Z"/>
    </clipPath>
    <clipPath id="clippath-3">
      <rect class="cls-3" x="-295.5" y="-15.3" width="312.73" height="374.54"/>
    </clipPath>
    <clipPath id="clippath-4">
      <rect class="cls-3" width="51.37" height="57.18"/>
    </clipPath>
  </defs>
  <g class="cls-7">
    <g id="Capa_1" data-name="Capa 1">
      <g>
        <g class="cls-6">
          <rect class="cls-1" x="-84.72" y="-171.69" width="132.76" height="201.65" transform="translate(32.97 -18.66) rotate(-30)"/>
          <rect class="cls-5" x="-163.14" y="-171.69" width="132.76" height="201.65" transform="translate(22.47 -57.87) rotate(-30)"/>
          <rect class="cls-2" x="-91" y="-202.91" width="132.76" height="201.65" transform="translate(47.74 -25.98) rotate(-30)"/>
        </g>
        <g class="cls-11">
          <g class="cls-14">
            <g class="cls-9">
              <path class="cls-12" d="M-44.45,206.22c-1.12-.03-2.14-.64-2.71-1.6l-75.07-127.37c-.3-.5-.45-1.08-.45-1.66V-4.62c5.1,6.17,10.86,13.11,17.11,20.67,44.48,53.63,47.09,55.99,57.84,69.76C-11.92,131.56,5.98,154.43,12.61,179.44c.98,3.64,3.62,14.24,4.61,28.63l-61.67-1.86Z"/>
            </g>
          </g>
        </g>
      </g>
      <g>
        <g class="cls-13">
          <g class="cls-4">
            <path class="cls-10" d="M50.73,43.82l-24.43,13.21c-.35.19-.78.19-1.14,0L.63,43.77c-.6-.32-.81-1.08-.46-1.67L24.63.59c.46-.79,1.6-.79,2.07,0l24.5,41.56c.35.59.13,1.34-.46,1.67"/>
          </g>
        </g>
        <path class="cls-8" d="M29.65,50.48c-1.3,0-2.49-.59-3.26-1.63-2.29-3.05-4.09-5.38-5.19-6.8l-.49-.63c-3.49-4.48-6.01-7.71-6.44-12.48-.08-.94-.08-1.9,0-2.85l.02-.25c.09-4.65,2.25-8.97,5.97-11.88,3.76-2.93,8.59-3.95,13.28-2.79,5.4,1.34,9.77,5.7,11.11,11.11.29,1.18.44,2.38.46,3.67l.02.12c.1,1,.1,2,0,2.99-.45,4.68-2.88,7.74-6.24,11.98l-.79.99c-1.71,2.16-3.44,4.44-5.16,6.77-.77,1.05-1.96,1.65-3.27,1.66h-.02ZM15.19,26.61c-.04.76-.03,1.51.03,2.25.4,4.48,2.73,7.46,6.24,11.97l.49.63c1.11,1.42,2.91,3.75,5.2,6.81.59.79,1.5,1.24,2.5,1.24h.01c1,0,1.91-.47,2.5-1.27,1.72-2.33,3.46-4.62,5.17-6.79l.79-1c3.26-4.11,5.61-7.08,6.04-11.48.08-.78.09-1.58.04-2.37h-.06v-.48c0-1.27-.14-2.46-.43-3.61-1.26-5.07-5.35-9.15-10.41-10.41-4.39-1.09-8.93-.14-12.46,2.62-3.56,2.78-5.6,6.94-5.6,11.41l-.05.48Z"/>
        <path class="cls-8" d="M29.7,33.33c-3.97,0-7.2-3.23-7.2-7.2s3.23-7.2,7.2-7.2,7.2,3.23,7.2,7.2-3.23,7.2-7.2,7.2ZM29.7,19.89c-3.44,0-6.24,2.8-6.24,6.24s2.8,6.24,6.24,6.24,6.24-2.8,6.24-6.24-2.8-6.24-6.24-6.24Z"/>
      </g>
    </g>
  </g>
</svg>