<?xml version="1.0" encoding="UTF-8"?>
<svg xmlns="http://www.w3.org/2000/svg" xmlns:xlink="http://www.w3.org/1999/xlink" viewBox="0 0 612 364.96">
  <defs>
    <style>
      .cls-1 {
        fill: #80b8e5;
      }

      .cls-2 {
        stroke: #4690ce;
      }

      .cls-2, .cls-3 {
        stroke-miterlimit: 10;
      }

      .cls-2, .cls-3, .cls-4 {
        fill: none;
      }

      .cls-3 {
        stroke: #80b8e5;
      }

      .cls-5, .cls-6 {
        fill: #fff;
      }

      .cls-6 {
        font-family: Nunito-ExtraLight, Nunito;
        font-size: 32.56px;
        font-variation-settings: 'wght' 200;
        font-weight: 200;
      }

      .cls-7 {
        fill: #4690ce;
      }

      .cls-8 {
        letter-spacing: 0em;
      }

      .cls-9 {
        opacity: .8;
      }

      .cls-10 {
        clip-path: url(#clippath-1);
      }

      .cls-11 {
        isolation: isolate;
      }

      .cls-12 {
        clip-path: url(#clippath-3);
      }

      .cls-13 {
        mix-blend-mode: multiply;
      }

      .cls-14 {
        fill: #2557a4;
      }

      .cls-15 {
        clip-path: url(#clippath-2);
      }

      .cls-16 {
        fill: #27a1db;
      }

      .cls-17 {
        clip-path: url(#clippath);
      }
    </style>
    <clipPath id="clippath">
      <path class="cls-4" d="M0,0v305.63c64.51,25.99,175.41,61.14,316.54,59.27,130.25-1.73,232.99-34.29,295.46-59.52V0H0Z"/>
    </clipPath>
    <clipPath id="clippath-1">
      <rect class="cls-4" x="-58.99" y="-36.77" width="782.42" height="421.21"/>
    </clipPath>
    <clipPath id="clippath-2">
      <rect class="cls-4" x="214.17" y="154.93" width="16.9" height="18.81"/>
    </clipPath>
    <clipPath id="clippath-3">
      <path class="cls-4" d="M24.9,3.67v311.53c38.71,14.14,89.18,29.26,149.2,39.08h263.27c24.16-3.95,46.81-8.77,67.79-14.05V3.67H24.9Z"/>
    </clipPath>
  </defs>
  <g class="cls-11">
    <g id="Capa_1" data-name="Capa 1">
      <g>
        <g class="cls-17">
          <g class="cls-13">
            <g class="cls-10">
              <rect class="cls-16" x="-58.99" y="-36.77" width="782.42" height="421.21"/>
            </g>
          </g>
          <path class="cls-5" d="M265.58,179.41l10.06.04c.54,0,1.04.1,1.5.3.46.2.86.48,1.2.83.34.35.61.76.81,1.22.2.46.3.96.3,1.51,0,1.11-.37,2.02-1.1,2.73-.73.71-1.64,1.06-2.72,1.06h-14.32c-.13,0-.25-.02-.37-.07-.09,0-.19-.02-.28-.07-.8-.21-1.46-.65-1.98-1.31-.52-.66-.78-1.44-.78-2.34v-38.22c0-.54.1-1.05.29-1.51.2-.46.47-.86.81-1.19.34-.33.75-.6,1.22-.8.47-.2.96-.3,1.48-.3s1.04.1,1.5.3c.46.2.87.47,1.22.8s.63.73.83,1.19c.2.46.3.96.3,1.51v34.32Z"/>
          <path class="cls-5" d="M334.6,164.79l10.38-10.24c.41-.41.86-.71,1.36-.91.49-.19.99-.29,1.5-.29s.99.09,1.46.27c.47.18.89.45,1.25.82.38.39.66.82.83,1.31.17.48.24.97.22,1.47-.02.5-.14.99-.34,1.47-.2.48-.49.92-.85,1.31l-10.31,10.24,10.24,10.09c.36.39.64.82.83,1.31s.3.98.31,1.49-.08,1.01-.27,1.51c-.19.5-.48.92-.87,1.29-.82.77-1.75,1.16-2.79,1.16s-1.98-.39-2.75-1.16l-10.27-10.16-10.31,10.2c-.36.39-.78.68-1.25.87-.47.19-.95.29-1.43.29-1.01,0-1.93-.39-2.75-1.16-.39-.36-.68-.78-.87-1.25-.19-.47-.28-.96-.27-1.45.01-.5.12-.99.31-1.47s.47-.92.83-1.31l10.24-10.17-10.45-10.35c-.36-.36-.64-.79-.83-1.27-.19-.48-.28-.97-.27-1.47s.12-.99.31-1.47c.19-.48.48-.92.87-1.31.82-.78,1.75-1.16,2.79-1.16.48,0,.96.1,1.45.29.48.19.92.48,1.3.87l10.42,10.35Z"/>
          <path class="cls-5" d="M372.11,164.79l10.38-10.24c.41-.41.86-.71,1.36-.91.49-.19.99-.29,1.5-.29s.99.09,1.46.27c.47.18.89.45,1.25.82.38.39.66.82.83,1.31.17.48.24.97.22,1.47-.02.5-.14.99-.34,1.47-.2.48-.49.92-.85,1.31l-10.31,10.24,10.24,10.09c.36.39.64.82.83,1.31s.3.98.31,1.49-.08,1.01-.27,1.51c-.19.5-.48.92-.87,1.29-.82.77-1.75,1.16-2.79,1.16s-1.98-.39-2.75-1.16l-10.27-10.16-10.31,10.2c-.36.39-.78.68-1.25.87-.47.19-.95.29-1.43.29-1.01,0-1.93-.39-2.75-1.16-.39-.36-.68-.78-.87-1.25-.19-.47-.28-.96-.27-1.45.01-.5.12-.99.31-1.47s.47-.92.83-1.31l10.24-10.17-10.45-10.35c-.36-.36-.64-.79-.83-1.27-.19-.48-.28-.97-.27-1.47s.12-.99.31-1.47c.19-.48.48-.92.87-1.31.82-.78,1.75-1.16,2.79-1.16.48,0,.96.1,1.45.29.48.19.92.48,1.3.87l10.42,10.35Z"/>
          <path class="cls-5" d="M403.36,183.16c0,.53-.1,1.04-.31,1.53-.21.48-.48.9-.83,1.25-.35.35-.76.63-1.23.84-.47.21-.98.31-1.54.31s-1.04-.1-1.52-.31c-.48-.21-.9-.48-1.27-.84-.36-.35-.64-.77-.85-1.25-.2-.48-.31-.99-.31-1.53v-25.92c0-.53.11-1.03.33-1.51.22-.47.51-.89.87-1.25.36-.36.78-.65,1.27-.85s1-.31,1.56-.31,1.06.1,1.52.31c.46.21.86.49,1.21.85.35.36.62.78.81,1.25.19.47.29.97.29,1.51v25.92Z"/>
          <path class="cls-5" d="M403.36,145.18c0,2.17-1.76,3.93-3.93,3.93s-3.92-1.76-3.92-3.93,1.76-3.93,3.92-3.93,3.93,1.76,3.93,3.93"/>
          <path class="cls-5" d="M221.91,141.39v8.39c0,.07-.02.14-.06.2l-10.63,18.03c-.07.12-.2.19-.34.19h-6.96c.08-2.67.54-6.85,2.46-11.54,1.8-4.39,4.2-7.53,5.93-9.47.22,2.05.62,4.2,1.38,4.29.72.08,1.34-1.73,2.49-3.7,1.07-1.82,2.79-4.12,5.72-6.38"/>
          <path class="cls-5" d="M234.35,168.23c-.14,0-.26-.08-.33-.19l-9.1-15.43c-.04-.06-.05-.13-.05-.2v-9.72c.62.75,1.32,1.59,2.07,2.5,5.39,6.5,5.71,6.78,7.01,8.45,4.34,5.54,6.51,8.32,7.31,11.35.12.44.44,1.72.56,3.47l-7.47-.23Z"/>
          <g class="cls-9">
            <g class="cls-15">
              <path class="cls-5" d="M230.87,169.35l-8.04,4.35c-.12.06-.26.06-.38,0l-8.07-4.36c-.2-.11-.27-.36-.15-.55l8.05-13.66c.15-.26.53-.26.68,0l8.06,13.67c.11.19.04.44-.15.55"/>
            </g>
          </g>
          <path class="cls-5" d="M241.37,171.41c.23,0,.41.21.38.44-.19,1.68-.65,3.51-1.56,5.3-3.97,7.8-14.92,11.7-23.73,8.49-9.29-3.39-12.02-13.17-12.33-14.36,0-.04-.02-.08-.03-.12h7.39c.07,0,.13.02.19.05l8.37,4.53,1.01.55.18.1,1.2.66c.12.07.26.07.38,0l.51-.28,10.23-5.53c.06-.03.13-.05.2-.05l7.6.23Z"/>
          <path class="cls-5" d="M314.56,172.62c.69-.67,1.04-1.55,1.04-2.64-.02-2.32-.49-4.49-1.39-6.52-.91-2.03-2.13-3.8-3.67-5.3-1.54-1.5-3.33-2.69-5.37-3.56-2.04-.88-4.21-1.31-6.52-1.31s-4.52.44-6.57,1.33c-2.05.89-3.84,2.09-5.37,3.62-1.53,1.52-2.74,3.32-3.64,5.37-.89,2.06-1.34,4.26-1.34,6.6s.45,4.53,1.34,6.58c.89,2.04,2.11,3.83,3.64,5.37,1.53,1.54,3.32,2.75,5.37,3.63,2.04.88,4.21,1.32,6.52,1.33h0s2.25,0,2.25,0h0s.07,0,.11,0c3.29,0,6.48-.95,9.23-2.75,1.77-1.16,2.26-3.53,1.11-5.3-1.16-1.77-3.53-2.26-5.29-1.11-1.5.98-3.24,1.5-5.04,1.5-.04,0-.07,0-.11,0h0s-2.2,0-2.2,0c-.97,0-1.88-.14-2.75-.41-.87-.27-1.67-.66-2.4-1.17-.73-.51-1.37-1.12-1.92-1.84-.55-.72-.98-1.52-1.29-2.39h21.55c1.13,0,2.04-.34,2.74-1.01M290.02,167.25c.26-.94.66-1.8,1.2-2.57.54-.77,1.2-1.43,1.96-1.99.77-.55,1.62-.98,2.58-1.28.95-.29,1.97-.44,3.06-.44s2.11.14,3.07.43c.96.28,1.84.7,2.61,1.24.78.54,1.44,1.21,2,1.99.55.78.96,1.65,1.22,2.62h-17.7Z"/>
          <text class="cls-6" transform="translate(340.47 219.29)"><tspan x="0" y="0">P</tspan><tspan class="cls-8" x="20.06" y="0">R</tspan><tspan x="41.22" y="0">O</tspan></text>
          <rect class="cls-1" x="381.49" y="296.13" width="215.48" height="327.3" transform="translate(-164.35 306.21) rotate(-30)"/>
          <rect class="cls-2" x="371.6" y="291.13" width="215.48" height="327.3" transform="translate(-163.17 300.6) rotate(-30)"/>
          <path class="cls-14" d="M505.14,319.04l-19.6-9.38,9.35-19.54c1.36-2.85.16-6.26-2.68-7.62-2.85-1.36-6.26-.16-7.62,2.69l-9.35,19.54-19.6-9.38c-2.85-1.36-6.26-.16-7.62,2.69-1.36,2.84-.16,6.25,2.69,7.62l19.6,9.38-9.41,19.65c-1.36,2.85-.16,6.26,2.69,7.62,1.42.68,2.99.72,4.36.23,1.38-.49,2.57-1.5,3.25-2.92l9.41-19.65,19.6,9.38c1.42.68,2.99.72,4.36.24,1.38-.49,2.57-1.5,3.25-2.92,1.36-2.85.16-6.25-2.68-7.62"/>
          <path class="cls-14" d="M550.93,309.41l-10.8-19.44,19.38-10.77c2.82-1.57,3.84-5.13,2.27-7.95-1.57-2.82-5.13-3.84-7.95-2.27l-19.38,10.77-10.8-19.44c-1.57-2.82-5.13-3.84-7.95-2.27-2.82,1.57-3.84,5.13-2.27,7.95l10.8,19.44-19.49,10.83c-2.82,1.57-3.84,5.13-2.27,7.95.78,1.41,2.07,2.37,3.5,2.78,1.44.41,3.03.27,4.44-.51l19.49-10.83,10.8,19.44c.78,1.41,2.07,2.37,3.5,2.78,1.44.41,3.03.27,4.44-.51,2.82-1.57,3.84-5.13,2.27-7.95"/>
        </g>
        <g class="cls-12">
          <rect class="cls-1" x="89.83" y="216.79" width="132.76" height="201.65" transform="translate(-137.88 120.66) rotate(-30)"/>
          <rect class="cls-7" x="11.4" y="216.79" width="132.76" height="201.65" transform="translate(-148.39 81.44) rotate(-30)"/>
          <rect class="cls-3" x="-41.48" y="146.82" width="132.76" height="201.65" transform="translate(-120.49 45.63) rotate(-30)"/>
          <rect class="cls-2" x="83.55" y="185.57" width="132.76" height="201.65" transform="translate(-123.11 113.33) rotate(-30)"/>
          <path class="cls-14" d="M119.73,322.6c-5.22-1.42-9.89-4.83-12.78-9.88-1.65-2.88-.65-6.55,2.24-8.2,2.88-1.65,6.55-.65,8.2,2.24,2.49,4.35,8.06,5.87,12.41,3.38,4.35-2.49,5.87-8.05,3.38-12.41-2.49-4.35-8.06-5.87-12.41-3.38-2.88,1.65-6.55.65-8.2-2.23-1.65-2.88-.65-6.55,2.24-8.2,4.9-2.8,10.59-3.52,16.03-2.04,5.44,1.48,9.98,5,12.78,9.89,5.78,10.11,2.26,23.03-7.85,28.81-5.05,2.89-10.81,3.45-16.03,2.03"/>
          <path class="cls-14" d="M79.18,312c-5.22-1.42-9.91-4.83-12.8-9.9-5.78-10.11-2.25-23.03,7.85-28.81,4.9-2.8,10.59-3.52,16.03-2.04,5.44,1.48,9.98,5,12.78,9.89,1.65,2.88.65,6.55-2.24,8.2-2.88,1.65-6.55.65-8.2-2.24-1.21-2.11-3.16-3.62-5.5-4.26s-4.8-.33-6.9.88c-4.28,2.45-5.83,8.13-3.38,12.41,2.45,4.28,8.13,5.83,12.41,3.38l14.04-7.75c2.91-1.6,6.56-.55,8.17,2.36,1.6,2.9.55,6.56-2.36,8.16l-13.96,7.71c-5.01,2.86-10.73,3.42-15.93,2"/>
          <path class="cls-14" d="M236.83,307.84l-12.08-5.78,5.76-12.04c.84-1.75.1-3.85-1.65-4.69-1.75-.84-3.85-.1-4.69,1.65l-5.76,12.04-12.07-5.78c-1.75-.84-3.85-.1-4.69,1.65-.84,1.75-.1,3.85,1.65,4.69l12.07,5.78-5.8,12.11c-.84,1.75-.1,3.85,1.65,4.69.88.42,1.84.44,2.69.14.85-.3,1.59-.92,2-1.8l5.8-12.11,12.08,5.78c.88.42,1.84.45,2.69.14.85-.3,1.58-.92,2-1.8.84-1.75.1-3.85-1.65-4.69"/>
          <path class="cls-14" d="M190.13,290.47c-.36,0-.73-.07-1.08-.2l-23.1-9.02c-1.53-.6-2.29-2.32-1.69-3.86.6-1.53,2.32-2.29,3.86-1.69l23.1,9.02c1.53.6,2.29,2.33,1.69,3.86-.46,1.18-1.58,1.9-2.77,1.9"/>
          <path class="cls-14" d="M186.68,275.38c-.96,2.46-3.73,3.67-6.19,2.71-2.46-.96-3.67-3.73-2.71-6.19.96-2.46,3.73-3.67,6.19-2.71,2.46.96,3.67,3.73,2.71,6.19"/>
          <path class="cls-14" d="M179.39,294.05c-.96,2.46-3.73,3.67-6.19,2.71-2.46-.96-3.67-3.73-2.71-6.19.96-2.46,3.73-3.67,6.19-2.71,2.46.96,3.67,3.73,2.71,6.19"/>
        </g>
      </g>
    </g>
  </g>
</svg>